<?xml version="1.0" standalone="no"?>
<!DOCTYPE svg PUBLIC "-//W3C//DTD SVG 20010904//EN"
 "http://www.w3.org/TR/2001/REC-SVG-20010904/DTD/svg10.dtd">
<svg version="1.0" xmlns="http://www.w3.org/2000/svg"
 width="212.000000pt" height="215.000000pt" viewBox="0 0 212.000000 215.000000"
 preserveAspectRatio="xMidYMid meet">

<g transform="translate(0.000000,215.000000) scale(0.100000,-0.100000)"
fill="#000000" stroke="none">
<path d="M988 2026 l-77 -83 77 -76 c43 -42 82 -77 87 -77 6 0 46 36 90 80
l80 80 -80 80 c-44 44 -84 80 -90 79 -5 0 -45 -37 -87 -83z"/>
<path d="M1439 1879 c-6 -3 -9 -30 -7 -60 l3 -54 50 0 50 0 3 56 3 57 -46 4
c-26 2 -51 1 -56 -3z"/>
<path d="M364 1755 c-10 -24 5 -35 47 -35 35 0 39 3 39 25 0 23 -4 25 -40 25
-26 0 -43 -5 -46 -15z"/>
<path d="M1632 1663 c3 -15 16 -19 76 -21 67 -3 72 -1 72 18 0 18 -6 20 -76
20 -66 0 -75 -2 -72 -17z"/>
<path d="M1262 1645 c-139 -25 -312 -125 -430 -249 -114 -121 -182 -284 -182
-440 0 -20 3 -36 8 -36 4 0 38 48 76 105 38 58 86 120 106 139 49 44 138 86
291 137 120 40 128 41 281 45 149 4 158 4 168 -15 9 -17 6 -23 -15 -37 -14 -9
-25 -20 -25 -25 0 -4 42 -10 93 -11 91 -3 92 -3 92 -28 0 -22 -5 -25 -43 -28
-24 -2 -42 -6 -40 -10 28 -53 47 -107 41 -113 -4 -4 -35 -9 -68 -11 -48 -2
-60 -7 -63 -20 -3 -16 5 -18 67 -18 88 0 103 -16 92 -98 -9 -66 -20 -78 -59
-64 -47 16 -58 -12 -21 -49 18 -18 19 -23 6 -42 -13 -20 -24 -22 -116 -25 -93
-2 -101 -4 -101 -22 0 -15 7 -20 27 -20 51 0 16 -9 -67 -18 -83 -9 -243 -49
-308 -78 -22 -9 -68 -14 -137 -14 -88 0 -105 -3 -105 -15 0 -9 10 -19 21 -24
21 -7 20 -8 -7 -18 -30 -12 -166 -16 -196 -7 -10 3 -18 11 -18 18 0 10 -25 15
-93 18 -89 4 -96 6 -143 40 -31 23 -63 60 -86 98 -45 76 -53 135 -45 334 5
137 11 168 64 329 3 9 0 17 -6 17 -13 0 -62 -104 -93 -197 -22 -67 -21 -66
-96 -63 -38 1 -43 -1 -40 -17 2 -13 14 -19 43 -21 22 -2 43 -7 48 -11 13 -13
-15 -164 -35 -187 -22 -25 -23 -43 -3 -80 19 -37 19 -56 -2 -92 -14 -24 -15
-39 -7 -88 9 -58 10 -59 44 -64 27 -4 35 -10 35 -25 0 -16 -6 -20 -27 -18 -37
2 -37 -21 3 -104 44 -93 57 -103 130 -103 44 0 60 -3 56 -12 -2 -7 -14 -13
-27 -13 -13 0 -26 -7 -28 -14 -8 -25 29 -41 94 -41 42 0 65 -5 74 -15 13 -15
14 -14 -35 -30 -27 -8 -16 -33 18 -39 17 -4 91 -12 162 -17 111 -9 132 -13
146 -30 11 -16 25 -20 55 -17 39 3 39 3 42 51 l3 47 60 0 c53 0 59 2 59 21 0
12 -8 23 -20 26 -14 4 -20 14 -20 35 l0 29 63 -3 c56 -3 62 -5 65 -25 3 -20 9
-23 53 -23 46 0 49 2 49 25 0 24 2 25 64 25 36 0 68 5 71 10 3 6 17 10 31 10
13 0 57 9 97 21 58 16 98 20 205 19 129 -1 132 -1 132 21 0 19 -4 21 -37 16
-21 -3 -51 0 -66 6 l-29 12 61 48 c54 42 67 47 111 47 54 0 65 14 25 32 -14 6
-25 14 -25 18 0 17 28 39 55 42 26 3 31 9 43 50 11 39 17 48 42 53 38 8 41 40
5 49 -21 5 -25 12 -25 44 0 53 9 60 70 64 47 3 55 6 55 23 0 17 -8 20 -50 23
-27 2 -55 7 -61 13 -6 5 -14 51 -18 101 -6 94 -33 216 -60 281 l-14 36 31 3
c21 2 33 9 35 21 3 14 -4 17 -39 17 -37 0 -46 5 -78 42 -44 52 -85 93 -133
136 -34 29 -43 32 -103 32 -60 0 -66 2 -75 24 -8 21 -18 25 -67 31 -32 3 -69
7 -83 9 -14 2 -58 -2 -98 -9z m-627 -1140 c0 -18 -7 -20 -70 -20 -65 0 -70 2
-73 23 -3 22 -2 23 70 20 65 -3 73 -5 73 -23z m895 -60 c20 -24 2 -35 -60 -35
-59 0 -76 9 -66 35 8 21 109 21 126 0z m-225 -80 c0 -17 -7 -20 -50 -20 -45 0
-50 2 -53 23 -3 22 -1 23 50 20 45 -3 53 -6 53 -23z"/>
<path d="M1770 1520 c-10 -19 -8 -20 50 -20 53 0 60 2 60 20 0 17 -7 20 -50
20 -39 0 -52 -4 -60 -20z"/>
<path d="M504 1506 c-11 -29 4 -46 41 -46 34 0 36 2 33 28 -2 22 -8 28 -36 30
-22 2 -34 -2 -38 -12z"/>
<path d="M350 1485 c0 -30 25 -34 40 -6 14 28 13 31 -15 31 -20 0 -25 -5 -25
-25z"/>
<path d="M2014 1265 c-7 -18 3 -35 22 -35 8 0 14 10 14 25 0 27 -27 35 -36 10z"/>
<path d="M335 1100 c-3 -6 -3 -19 0 -31 6 -17 14 -20 48 -17 37 3 42 6 45 31
3 26 2 27 -42 27 -25 0 -48 -5 -51 -10z"/>
<path d="M1100 970 c0 -17 7 -20 45 -20 38 0 45 3 45 20 0 17 -7 20 -45 20
-38 0 -45 -3 -45 -20z"/>
<path d="M991 867 c-16 -21 -3 -27 56 -27 46 0 53 3 53 20 0 17 -7 20 -49 20
-28 0 -53 -6 -60 -13z"/>
<path d="M64 496 c-7 -19 3 -36 22 -36 10 0 14 8 12 22 -4 26 -26 36 -34 14z"/>
<path d="M115 331 c-11 -19 5 -31 41 -31 28 0 35 4 32 18 -4 19 -62 30 -73 13z"/>
<path d="M530 25 c0 -11 11 -15 40 -15 29 0 40 4 40 15 0 11 -11 15 -40 15
-29 0 -40 -4 -40 -15z"/>
<path d="M677 34 c-14 -15 7 -24 54 -24 37 0 49 4 49 15 0 11 -12 15 -48 15
-27 0 -52 -3 -55 -6z"/>
</g>
</svg>
